<svg xmlns="http://www.w3.org/2000/svg" viewBox="0 0 400 400"><path d="M0 0h400v400H0z"/><path fill="#fff" d="M33.61 137.61a57.06 57.06 0 0 0 85.58 49.4 57.05 57.05 0 0 0 28.49-49.4h-17.45a39.55 39.55 0 0 1-59.35 34.27 39.56 39.56 0 0 1-19.82-34.27zm218.73 0a57.06 57.06 0 0 0 114.13 0h-17.44c0 14.16-7.57 27.2-19.83 34.28a39.55 39.55 0 0 1-39.59 0 39.56 39.56 0 0 1-19.83-34.28zM112.79 32.94 69.17 85.28l-43.6 52.33h122.1l26.16 75.53L200 288.67l26.17-75.53 26.17-75.53h122.09l-43.6-52.33-43.62-52.34-43.6 52.34-43.6 52.33H200l-43.6-52.33Zm174.42 5.65 72.48 92.77h-26.62Z" color="#000"/><path fill="#fff" d="M55.58 352.45h24.5V339.1h-24.5v-12.06h26.34v-13.36H41.29v60.67h14.29zm59.06 9.6c-6.6 0-10.76-3.84-10.76-12.2v-36.18H89.6v37.02c0 15.9 9.68 24.73 25.04 24.73s25.03-8.84 25.03-24.73v-37.02H125.4v36.48c0 8.22-4.15 11.9-10.75 11.9zm63.05 12.3v-47.32h16.67v-13.36h-47.62v13.36h16.66v47.31zm48.77-12.3c-6.6 0-10.75-3.84-10.75-12.2v-36.18h-14.29v37.02c0 15.9 9.68 24.73 25.04 24.73s25.03-8.84 25.03-24.73v-37.02h-14.28v36.48c0 8.22-4.15 11.9-10.75 11.9zm84.7 12.3-13.2-22.74c6.37-3.15 10.06-9.3 10.06-17.82 0-12.6-8.53-20.12-22.2-20.12h-24.5v60.67h14.29V354h8.22l10.6 20.35zm-27.41-47.78c5.91 0 9.68 2.3 9.68 7.22s-3.77 7.22-9.68 7.22h-8.14v-14.44zm47.08 23.5h25.5v-12.9h-25.5v-10.6h26.96v-12.9h-41.25v60.67h42.17v-12.9h-27.88z"/></svg>
