<svg xmlns="http://www.w3.org/2000/svg" width="400" height="400"><path d="M0 0h400v400H0z"/><path fill="#fff" d="M89.612198 143.61453c0 20.36394 10.914822 39.21929 28.550532 49.40125 17.63572 10.18199 39.39721 10.18199 57.03293 0 17.6357-10.18196 28.48239-29.03731 28.48238-49.40125h-17.44376c0 14.15986-7.4977 27.19429-19.7605 34.27426-12.26282 7.07993-27.32634 7.07993-39.58917 0-12.26281-7.07997-19.82865-20.1144-19.82865-34.27426zm218.727872 0c-.00003 20.36394 10.91481 39.21925 28.55052 49.40125 17.63571 10.18199 39.39718 10.18199 57.03293 0 17.63567-10.182 28.5505-29.03731 28.5505-49.40125h-17.44376c0 14.15986-7.56584 27.19429-19.82863 34.27426-12.26281 7.07993-27.32634 7.07993-39.58916 0-12.26282-7.07997-19.82867-20.1144-19.82864-34.27426zM168.78611 38.938762l-43.6149 52.337934-43.598994 52.337834H203.67803l26.15303 75.53021 26.16892 75.53022 26.16895-75.53022 26.16895-75.53021h122.0899L386.8288 91.276696l-43.61492-52.337934-43.59899 52.337934-43.59896 52.337834h-.0157l-43.59896-52.337834Zm174.42777 5.650832 72.47396 92.769216H389.0732Z" color="#000" style="-inkscape-stroke:none" transform="translate(-56 -6)"/><path fill="#fff" d="M111.57754 358.45265h24.4992v-13.3632h-24.4992v-12.0576h26.3424v-13.3632H97.292741v60.672h14.284799zm59.05918 9.6c-6.6048 0-10.752-3.84-10.752-12.2112v-36.1728h-14.2848v37.0176c0 15.8976 9.6768 24.7296 25.0368 24.7296s25.0368-8.832 25.0368-24.7296v-37.0176h-14.2848v36.48c0 8.2176-4.1472 11.904-10.752 11.904zm63.05285 12.288v-47.3088h16.6656v-13.3632h-47.616v13.3632h16.6656v47.3088zm48.76804-12.288c-6.6048 0-10.752-3.84-10.752-12.2112v-36.1728h-14.2848v37.0176c0 15.8976 9.6768 24.7296 25.0368 24.7296s25.0368-8.832 25.0368-24.7296v-37.0176h-14.2848v36.48c0 8.2176-4.1472 11.904-10.752 11.904zm84.71046 12.288-13.2096-22.7328c6.3744-3.14879 10.0608-9.29279 10.0608-17.8176 0-12.59519-8.5248-20.12159-22.1952-20.12159h-24.4992v60.672h14.2848v-20.352h8.2176l10.5984 20.352zm-27.4176-47.7696c5.9136 0 9.6768 2.304 9.6768 7.2192 0 4.91521-3.7632 7.21921-9.6768 7.21921h-8.1408v-14.43841zm47.07839 23.5008h25.4976v-12.9024h-25.4976v-10.5984h26.9568v-12.90239h-41.2416v60.672h42.1632v-12.9024h-27.8784z" aria-label="FUTURE" font-family="MiSans" font-size="96" font-weight="700" style="-inkscape-font-specification:'MiSans Bold';white-space:pre" transform="translate(-56 -6)"/></svg>