<svg xmlns="http://www.w3.org/2000/svg" viewBox="0 0 512 512"><path fill="none" stroke="#000" stroke-linecap="round" stroke-width="15.3" d="M299.5 354c-14-94.1-126-176.2-65-283.7h0c49.2-86.5 245.8 22 193.1 113.1-57.3 99.4-181.4 60.9-269.2 86.3m-47.9 24.9c-9 7.8-17.1 17.4-24 29.3-56.3 97.5 139.2 210.7 197 110.4a126.8 126.8 0 0 0 15.8-42.6"/><path d="M203 345.8c-5-1.3-109 2-109.5 3.6-8 29.2 19.8 62.5 41.4 81.2 25.4 22 75.3 36.2 105.4 21.4 38.2-18.8 42-61.5 38-66.4-4.7-5.8-70.7-38.6-75.3-39.8zm39.1-161.1c-.6-6.4 168.3-6.8 167.1-1-3.4 17.2-18.9 26.7-45.2 41-25.9 14-57.5 16.4-93.4 17.4-14.3-15.2-28-52-28.5-57.4z"/><path fill="none" stroke="#000" stroke-linecap="round" stroke-width="11.2" d="M377 258.7a207.6 77.3 30 0 1 58.8 112h0A207.6 77.3 30 0 1 217.3 334a207.6 77.3 30 0 1-141-170.8 207.6 77.3 30 0 1 119.3-7.4"/></svg>
